<?xml version="1.0" standalone="no"?>
<!DOCTYPE svg PUBLIC "-//W3C//DTD SVG 1.1//EN" "http://www.w3.org/Graphics/SVG/1.1/DTD/svg11.dtd" >
<svg xmlns="http://www.w3.org/2000/svg">
<metadata>
Created by FontForge 20120731 at Sun Nov  8 09:59:19 2015
 By Ads
</metadata>
<defs>
<font id="iconfont" horiz-adv-x="1024" >
  <font-face 
    font-family="iconfont"
    font-weight="500"
    font-stretch="normal"
    units-per-em="1024"
    panose-1="2 0 6 3 0 0 0 0 0 0"
    ascent="812"
    descent="-212"
    x-height="792"
    bbox="0 -224 1026 812"
    underline-thickness="50"
    underline-position="-100"
    unicode-range="U+0078-F00CF"
  />
<missing-glyph horiz-adv-x="374" 
d="M34 0v682h272v-682h-272zM68 34h204v614h-204v-614z" />
    <glyph glyph-name=".notdef" horiz-adv-x="374" 
d="M34 0v682h272v-682h-272zM68 34h204v614h-204v-614z" />
    <glyph glyph-name=".null" horiz-adv-x="0" 
 />
    <glyph glyph-name="nonmarkingreturn" horiz-adv-x="341" 
 />
    <glyph glyph-name="x" unicode="x" horiz-adv-x="1001" 
d="M281 543q-27 -1 -53 -1h-83q-18 0 -36.5 -6t-32.5 -18.5t-23 -32t-9 -45.5v-76h912v41q0 16 -0.5 30t-0.5 18q0 13 -5 29t-17 29.5t-31.5 22.5t-49.5 9h-133v-97h-438v97zM955 310v-52q0 -23 0.5 -52t0.5 -58t-10.5 -47.5t-26 -30t-33 -16t-31.5 -4.5q-14 -1 -29.5 -0.5
t-29.5 0.5h-32l-45 128h-439l-44 -128h-29h-34q-20 0 -45 1q-25 0 -41 9.5t-25.5 23t-13.5 29.5t-4 30v167h911zM163 247q-12 0 -21 -8.5t-9 -21.5t9 -21.5t21 -8.5q13 0 22 8.5t9 21.5t-9 21.5t-22 8.5zM316 123q-8 -26 -14 -48q-5 -19 -10.5 -37t-7.5 -25t-3 -15t1 -14.5
t9.5 -10.5t21.5 -4h37h67h81h80h64h36q23 0 34 12t2 38q-5 13 -9.5 30.5t-9.5 34.5q-5 19 -11 39h-368zM336 498v228q0 11 2.5 23t10 21.5t20.5 15.5t34 6h188q31 0 51.5 -14.5t20.5 -52.5v-227h-327z" />
    <glyph glyph-name="uniE600" unicode="&#xe600;" 
d="M933 -80q0 -17 -12 -29t-28 -12h-762q-16 0 -28 12t-12 29v0q0 3 0.5 8.5t2.5 22t5.5 32.5t11.5 37t18.5 39t28 35.5t38.5 28.5q34 17 58.5 20.5t64.5 20.5q36 15 61 27t33 16l7 4v80q0 1 -1 2t-4.5 5t-7 9t-7.5 13.5t-7.5 18t-7 23.5t-5.5 29q-4 -1 -8 0t-7 4.5t-5 7.5
t-3 9.5t-2 10.5t-1 10q0 2 -1.5 13.5t-1.5 19.5t0.5 17.5t4.5 14t10 3.5q-8 66 -6 88q4 49 46.5 88.5t106.5 43.5q72 -4 109.5 -41.5t42.5 -90.5q1 -6 0 -22.5t-2.5 -30.5t-4.5 -35q5 1 8.5 -1.5t4.5 -7t2 -10.5t0.5 -13.5t-1 -13.5t-1.5 -13t-1 -9q0 -11 -2.5 -20.5
t-8.5 -16.5t-15 -5q-5 -33 -15 -58t-17 -33l-8 -8v-80q20 -12 101 -47q40 -17 64.5 -21t58.5 -21q16 -9 30.5 -21.5t24.5 -26.5t18.5 -29t13.5 -30t8.5 -29t5 -26t2.5 -21.5t1 -14.5z" />
    <glyph glyph-name="uniE601" unicode="&#xe601;" 
d="M868 245q29 0 45 46q19 55 -1 94q-14 27 -44 28h-168q27 45 46 85t27.5 70.5t11.5 56.5t0 44t-10 32.5t-16.5 23t-20.5 14.5t-20 8t-18 2q0 -68 -61.5 -142t-157 -132t-201.5 -90v-448h-56v448h56v28h-112q-23 0 -39.5 -24.5t-16.5 -59.5v-336q0 -14 2.5 -27t8 -23
t12.5 -18t15.5 -12t17.5 -4h112v28q48 -5 84 -12.5t57 -15.5t38.5 -16t34.5 -15t38.5 -13t56.5 -9t83 -3q29 0 54 9t41.5 28.5t16.5 46.5q35 0 56 59q19 52 8 75q-4 5 -8 6q27 0 46.5 42t15.5 84t-34 42zM868 245z" />
    <glyph glyph-name="uniE602" unicode="&#xe602;" 
d="M881 457q-10 2 -24.5 4t-41 3t-45 1.5t-61.5 1.5t-66 2q7 32 7 92q0 25 -5.5 49t-15.5 44.5t-23.5 38.5t-28.5 30.5t-32 19.5t-33 7q-34 0 -58.5 -24.5t-25.5 -58.5q0 -9 -0.5 -18t-2 -20t-4 -21.5t-6 -22t-8.5 -23t-11 -22.5t-14.5 -21.5t-18 -20.5t-21.5 -18.5
t-26 -16.5q-3 -1 -10 -4.5t-12.5 -6.5t-7.5 -3l2 -1q-26 22 -56 22h-84q-35 0 -59.5 -24.5t-24.5 -59.5v-449q0 -34 24.5 -59t59.5 -25h84q24 0 44 13.5t31 35.5l1 -1h3q2 -1 4 -1l1 -1q33 -8 114 -26q85 -20 167 -20h153q14 0 26.5 2t23.5 6.5t20.5 11t17 15t13.5 19.5
q12 21 26 53t35 91.5t35 141.5t14 167q0 19 -8 37.5t-27 35t-45 24.5zM260 -63q0 -5 -2.5 -10.5t-6 -9t-8.5 -6t-11 -2.5h-84q-12 0 -20 8.5t-8 19.5v449q0 11 8 19.5t20 8.5h84q12 0 20 -8.5t8 -19.5v-449zM904 343q-2 -58 -9 -111.5t-16.5 -93t-20 -74.5t-20.5 -58
t-18.5 -40t-13.5 -25l-5 -7q-4 -8 -10 -13.5t-16.5 -8.5t-24.5 -3h-153q-75 0 -155 18q-111 26 -130 31l4 412v31q46 19 80 50t52 67.5t27 73t9 74.5q0 7 3.5 13.5t10 10.5t14.5 4q25 0 53.5 -41t28.5 -92q0 -49 -4 -71.5t-22 -75.5q133 0 198.5 -1.5t76.5 -3t28 -6.5
q34 -9 34 -43q0 -1 -1 -17z" />
    <glyph glyph-name="uniE604" unicode="&#xe604;" 
d="M503 290zM453 290q0 11 4 20t10.5 16t16 11t19.5 4q21 0 36 -15t15 -36t-15 -35.5t-36 -14.5q-14 0 -25.5 6.5t-18 18.5t-6.5 25zM829 617q-86 86 -201.5 116.5t-231 0t-201.5 -116.5t-116.5 -201.5t0 -231t116.5 -201.5t201.5 -116.5t231 0t201.5 116.5
q64 65 97.5 148.5t33.5 168.5t-33.5 168.5t-97.5 148.5zM785 27q-74 -74 -173.5 -100t-199 0t-173.5 100t-100 173.5t0 199t100 173.5q45 44 100.5 72t114 36t117 0t114 -36t100.5 -72q74 -74 100 -173.5t0 -199t-100 -173.5zM500 -36zM487 -36q0 5 3.5 9t9 4t9 -4t3.5 -9
q0 -3 -1.5 -6t-4.5 -4.5t-6 -1.5q-6 0 -9.5 3.5t-3.5 8.5zM637 167q2 1 4 3t3.5 4.5t1.5 5.5l107 328q3 9 -1 17t-13 12q-10 12 -25 8l-325 -106q-8 -2 -13 -8.5t-5 -14.5q-2 -3 -3 -6l-107 -323q-4 -15 7 -25q3 -5 7.5 -9t10 -5t11.5 0l326 109q9 2 14 10zM339 127l85 258
l250 81l-83 -255zM863 287q0 5 -3.5 8.5t-8.5 3.5q-2 0 -4.5 -1.5t-4.5 -3.5t-2 -5q-4 -130 -96 -221q-42 -43 -95.5 -67t-111.5 -28v-23q41 3 80 15t76 34t67 53q96 95 103 229v5v1z" />
    <glyph glyph-name="uniE605" unicode="&#xe605;" 
d="M16 796zM768 770q-85 0 -152 -51.5t-88 -133.5q-22 82 -89 133.5t-153 51.5q-103 0 -176 -72.5t-73 -176.5q0 -53 21.5 -101t59.5 -83l410 -476l431 499v1q58 69 58 160q0 104 -72.5 176.5t-176.5 72.5z" />
    <glyph glyph-name="uniE606" unicode="&#xe606;" 
d="M734 160l-51 -149h103zM427 160v-320q0 -27 18.5 -45.5t45.5 -18.5h469q27 0 45.5 18.5t18.5 45.5v469q0 18 -8.5 32.5t-23.5 23t-32 8.5h-320v-149q0 -17 -8.5 -32t-23.5 -23.5t-32 -8.5h-149zM829 -92q-2 5 -4 9.5t-4 8.5l-16 42h-140l-17 -43q-5 -13 -9 -21t-7 -13
q-4 -4 -9.5 -6t-13.5 -2q-13 0 -23 9t-10 21q0 3 0.5 6.5t1.5 7.5l8 20l88 214q2 6 4.5 11t4.5 11q5 12 12 22q6 9 15 14q5 2 11.5 3.5t13.5 1.5q3 0 6.5 -0.5t6.5 -1t6 -1.5t5 -2q5 -3 9 -7l7 -7q3 -4 5.5 -8.5t4.5 -9.5v-1q6 -14 10 -24l90 -213q11 -25 11 -36
q0 -12 -10 -21t-24 -9q-9 0 -14 2q-6 3 -10 8q-1 2 -2.5 4t-3 5t-3.5 6zM296 443q12 0 31.5 -9.5t46.5 -28.5q16 17 24 41q4 12 5.5 26t1.5 30q0 39 -13 69q-13 28 -38 43t-57 15q-11 0 -21.5 -2t-20.5 -6q-19 -8 -33 -24q-7 -8 -12.5 -18t-9.5 -22q-1 -3 -1.5 -5.5
t-1.5 -5.5t-1 -6l-2 -6v-6q-1 -3 -1 -6t-0.5 -6.5t-0.5 -6.5v-7q0 -62 30 -95q30 -34 76 -34q4 0 8 1h8q4 1 7.5 2t7.5 2t8 3q-4 3 -8.5 5.5t-10 5.5t-11.5 6l-8 4l-7 4q-3 1 -5.5 2.5t-3.5 2.5q-7 5 -7 14q1 7 6 13q6 5 14 5zM64 800q-27 0 -45.5 -18.5t-18.5 -45.5v-469
q0 -27 18.5 -45.5t45.5 -18.5h469q27 0 45.5 18.5t18.5 45.5v469q0 27 -18.5 45.5t-45.5 18.5h-469zM469 496q0 -40 -10 -72t-30 -56q15 -10 31 -17q6 -3 10.5 -5.5t7.5 -4.5t5 -4q6 -5 6 -13q0 -3 -2 -6.5t-5 -6.5q-7 -7 -16 -7q-4 0 -8 2l-11 3q-8 4 -25 14t-32 21
q-35 -13 -87 -13q-14 0 -26.5 1t-24.5 4t-23 7q-33 12 -56 35q-23 24 -34 55q-3 8 -5 16.5t-3.5 17t-2 17.5t-0.5 18q0 39 11 70q6 16 14.5 29.5t19.5 24.5q22 22 53 34q32 12 71 12q27 0 50.5 -5.5t42.5 -16.5q40 -21 59 -61q20 -39 20 -93z" />
    <glyph glyph-name="uniE607" unicode="&#xe607;" 
d="M514 126q-20 0 -34 -14t-14 -34t14 -34t34 -14t34 14t14 34q0 32 -29 44q-10 4 -19 4zM594 289q1 1 12.5 8t17 11t17 13.5t18 18.5t14 21.5t11 28.5t3.5 33q0 18 -4.5 35t-11.5 31.5t-17 27.5t-22 23t-25 18.5t-26 13.5t-26 8q-109 22 -172 -47q-16 -17 -25.5 -32.5
t-15 -35t-7.5 -40.5t-2 -52h93v18q0 19 1.5 32t8 28t20 25t35.5 14q50 10 82 -21q11 -11 14 -27.5t-3.5 -34t-22.5 -28.5l-53 -35q-22 -15 -31 -32t-9 -42v-108h92v73q0 32 34 54zM512 -212q104 0 199 40.5t163.5 109t109 163.5t40.5 199t-40.5 199t-109 163.5t-163.5 109
t-199 40.5t-199 -40.5t-163.5 -109t-109 -163.5t-40.5 -199t40.5 -199t109 -163.5t163.5 -109t199 -40.5zM512 716q172 0 294 -122t122 -294t-122 -294t-294 -122t-294 122t-122 294t122 294t294 122z" />
    <glyph glyph-name="uniE609" unicode="&#xe609;" 
d="M512 -212q-52 0 -103 10.5t-96.5 29.5t-87 47.5t-76 62.5t-62.5 75.5t-47 87t-29.5 96.5t-10.5 103q0 104 40.5 199t109 163.5t163.5 109t199 40.5q47 0 92 -8t86.5 -24t80 -38t71.5 -50.5t61.5 -61.5t50.5 -71.5t38 -80t24 -86.5t8 -92q0 -188 -122 -332
q-116 -136 -292 -171q-49 -9 -98 -9zM512 748q-91 0 -174 -35.5t-143 -95.5t-95.5 -143t-35.5 -174t35.5 -174t95.5 -143t143 -95.5t174 -35.5t174 35.5t143 95.5t95.5 143t35.5 174t-35.5 174t-95.5 143t-143 95.5t-174 35.5zM376 436l362 90l-90 -362l-362 -90zM665 453
l-243 -62l-63 -244l244 63zM482 330q12 13 30 13t30.5 -12.5t12.5 -30.5t-13 -30q-8 -8 -19 -11t-22 0t-19 11q-5 5 -8 11t-4 12.5t0 13t4 12.5t8 11z" />
    <glyph glyph-name="uniE60A" unicode="&#xe60a;" 
d="M268 469q0 99 71.5 168.5t172.5 69.5t172.5 -69.5t71.5 -168.5t-71.5 -169t-172.5 -70t-172.5 70t-71.5 169zM225 469q0 -56 21.5 -106.5t59 -89t86.5 -60.5q-148 -42 -235 -167q-62 -89 -73 -196h43q16 143 126 240.5t259 97.5t259 -97.5t126 -240.5h43q-8 86 -50 160.5
t-109 127t-149 75.5q75 34 121 103t46 153q0 76 -38.5 140.5t-104.5 102.5t-144 38q-119 0 -203 -82.5t-84 -198.5z" />
    <glyph glyph-name="uniE60C" unicode="&#xe60c;" 
d="M207 483q4 -3 7.5 -6t9 -7t10.5 -8q27 -13 55 -18v-563q-19 3 -31 11q-12 7 -20.5 13.5t-16.5 15.5t-15 20zM199 524q-8 0 -14 -6t-6 -15l-1 -564q0 -6 2 -10q21 -37 63 -62q25 -15 53 -15q6 0 10.5 2t7.5 6.5t3 12.5v578q0 4 -1.5 7.5t-3.5 6t-5.5 4.5t-7.5 2
q-18 3 -27.5 6t-24.5 11q-5 3 -10 7t-8.5 7t-6.5 6l-3 3l-1 2q-1 1 -3 2.5t-3 2.5l-2 2l-4 2q-1 1 -3 1.5t-4 0.5zM567 135q15 -32 39 -56q-21 -9 -39 -22v78zM814 121v-64q-16 12 -34 20q20 19 34 44zM691 358q-15 0 -30 -3t-28 -8.5t-25 -13.5t-22.5 -17.5t-19 -21.5
t-14.5 -25t-9.5 -27.5t-3.5 -29.5v-1v-1v-222q26 39 67 59.5t85 20.5h1q-46 2 -80.5 48t-34.5 97v1h5h5q7 0 15 0.5t20 1.5t25 4t27.5 6.5t31 9.5t32.5 14q17 -15 28.5 -22.5t21.5 -10.5t24 -3v-1q0 -32 -15.5 -65.5t-43.5 -56t-59 -23.5q23 0 44.5 -5.5t40.5 -16.5
t35.5 -27t27.5 -37v208v1q1 8 1 15q0 64 -47 109v1l-1 1l-1 1l-1 1h-1l-1 1l-1 1l-1 1l-1 1l-1 1l-1 1l-2 1l-1 1l-1 1h-1q0 1 -1 1v1h-1l-2 1l-1 1h-1l-1 1v1h-1l-1 1h-1l-1 1h-1v1q-1 0 -1.5 0.5t-1.5 0.5q-3 2 -5 3t-3 1l-8 4q-28 12 -59 12zM692 68h2h-2zM690 667h-3
l-377 -162q-8 -3 -4 -12q2 -5 8 -5h4l376 162q2 1 3 2t1.5 2.5t0.5 3.5v4q-3 5 -9 5zM642 688h-2q-1 0 -1 -1l-377 -161q-3 -2 -4.5 -5.5t0.5 -6.5q2 -6 8 -6q2 0 4 1l376 161q3 2 4.5 5.5t0.5 6.5q-4 5 -9 6zM763 613v-212q-35 12 -72 12q-58 0 -107 -27.5t-78.5 -75.5
t-32.5 -105v-3v-1v-257q0 -8 -1 -13l-102 -44v557zM771 645q-3 0 -5.5 -0.5t-4.5 -1.5l-407 -175q-12 -5 -12 -19v-573q0 -9 6 -15t14 -6l10 2l117 50q13 7 13 38v256v1v1q3 76 58 129t131 53q38 0 73 -15q5 -2 10 -5h1l3 -1v-1l6 -3h1q1 -1 3 -2l3 -2v268q0 9 -6 15t-14 6z
M636 748h-4q-1 0 -2 -1l-409 -175q-6 -3 -8.5 -9t0.5 -12q2 -4 6 -6.5t8 -2.5q3 0 6 1l409 175q6 3 8.5 9t-0.5 12q-4 9 -14 9zM644 5l35 -16l11 -6l12 5l35 16q19 -8 35 -21.5t27 -30t15 -35.5h-249q7 29 28 52.5t51 35.5zM645 35q-48 -14 -80 -55t-32 -92h313
q0 25 -8.5 49t-23 42.5t-35 33t-43.5 21.5l-45 -20z" />
    <glyph glyph-name="uniE60D" unicode="&#xe60d;" 
d="M487 -32q66 0 126.5 26t104.5 69.5t70 104.5t26 127q0 89 -44 164.5t-119.5 119.5t-164 44t-164 -44t-119.5 -119.5t-44 -164.5q0 -133 94 -229q100 -96 234 -98zM486.5 582q118.5 0 202.5 -84t84 -202.5t-84 -202.5t-202.5 -84t-202.5 84t-84 202.5t84 202.5t202.5 84z
M343 131q5 0 9 3l193 94q6 3 9 9l94 193q2 3 2.5 6t0 6t-2 6t-4.5 5q-10 10 -23 4l-193 -94q-3 -2 -5.5 -4t-3.5 -6l-94 -192q-1 -2 -1.5 -4.5t-0.5 -5t0.5 -5t2 -5t3.5 -4.5q6 -6 14 -6zM453 329l132 65l-65 -133l-132 -65z" />
    <glyph glyph-name="uniE60F" unicode="&#xe60f;" 
d="M85 -147h854v25v137q0 12 -11 23t-22 16l-12 5l-259 134q47 37 90 104.5t43 106.5v128q0 22 -13 50t-37 56t-55 52t-71 40t-80 17q-44 -1 -88.5 -24t-76 -56.5t-51 -70t-19.5 -64.5v-128q0 -36 44 -104.5t91 -106.5l-283 -134q-5 -2 -12.5 -6t-19.5 -15.5t-12 -22.5v-152
v-2v-8zM128 -3q4 4 15.5 14.5t18.5 13.5l247 115q35 13 39 49q2 9 0 18t-8 14q-39 31 -79.5 90.5t-40.5 92.5v128q0 20 15 48.5t40 56.5t62 48t75 21q22 -1 46 -8.5t44.5 -19t39.5 -26.5t34 -31.5t26 -32.5t17 -30.5t6 -25.5v-128q0 -17 -11.5 -42.5t-28.5 -51.5t-38 -50.5
t-40 -38.5q-12 -10 -10 -32q1 -5 8.5 -16t17 -21t15.5 -12l212 -110l1 -1q6 -2 24 -15.5t21 -16.5v-102h-768v102z" />
    <glyph glyph-name="uniE611" unicode="&#xe611;" 
d="M809 584q-60 59 -136.5 91t-160.5 32q-33 0 -66 -5.5t-64 -15.5t-60 -24.5t-55.5 -34t-50.5 -43.5q-39 -39 -66.5 -86.5t-42 -100.5t-14.5 -109t14.5 -109t42 -100.5t66.5 -86.5q59 -60 135.5 -91.5t160.5 -31.5t160.5 31.5t136.5 91.5q80 80 108.5 188t0 216t-108.5 188
v0zM770 30q-52 -51 -118.5 -78.5t-139.5 -27.5t-139.5 27.5t-118 79t-79 118t-27.5 139.5q0 29 4.5 57.5t13.5 55.5t21.5 52t29.5 48.5t38 43.5q25 26 55 46t62.5 33.5t68 20.5t72 7t71.5 -7t67.5 -20.5t62.5 -33.5t56 -46q70 -69 94.5 -163t0 -188t-94.5 -164v0zM693 185
l-144 84v228q0 7 -3 13.5t-7.5 11.5t-11 7.5t-13.5 2.5q-15 0 -25 -10t-10 -25v-244q0 -15 26 -30q3 -3 16 -11l144 -87q9 -5 17 -5t15.5 4.5t11.5 13.5q7 12 2 26t-18 21v0zM693 185z" />
    <glyph glyph-name="uniE612" unicode="&#xe612;" 
d="M380 524q-123 0 -210 -56t-87 -136q0 -63 57 -113.5t147 -69.5q-2 -18 -7.5 -35t-17.5 -38t-36 -39t-57 -28q18 -1 49 1t109.5 36t136.5 101q93 18 153 69t60 116q0 39 -23.5 74.5t-63 61.5t-94.5 41t-116 15zM385 171q-5 0 -9.5 2.5t-7 7t-2.5 9.5t2.5 9t7 6.5t9.5 2.5
t9.5 -2.5t7 -6.5t2.5 -9q0 -4 -1.5 -7.5t-4 -6t-6 -4t-7.5 -1.5zM403 274v-35q0 -8 -5.5 -13t-12.5 -5t-12.5 5t-5.5 13v49q0 4 1.5 7.5t4 6t5.5 4t7 1.5h1q20 0 34.5 14t14.5 34q0 13 -6.5 24t-18 17t-24.5 6q-20 0 -34.5 -14t-14.5 -33q0 -5 1 -9.5t3 -9.5v0q2 -3 2 -7
q0 -7 -5.5 -12t-13.5 -5q-5 0 -9 2.5t-6 6.5h-1q0 1 -0.5 2t-0.5 3q-6 14 -6 29q0 22 11.5 41.5t31 30.5t42.5 11q35 0 60 -24.5t25 -58.5q0 -30 -19.5 -53t-48.5 -28zM972 529q0 39 -29 71.5t-79.5 51.5t-109.5 19q-75 0 -133 -29.5t-77 -74.5q45 -13 83 -33.5t65 -46.5
t42 -58t15 -66v-5v-4q0 -3 -0.5 -5.5t-0.5 -4.5q36 -26 76.5 -39t62.5 -13h22q-79 25 -87 103q66 14 108 51t42 83zM751 589q0 4 1.5 7.5t4 6t6.5 4t8 1.5q5 0 9.5 -2.5t7.5 -7t3 -9.5v-75q0 -5 -3 -9.5t-7.5 -7t-9.5 -2.5q-9 0 -14.5 5.5t-5.5 13.5v75zM771 443
q-6 0 -10.5 2.5t-7.5 7.5t-3 10q0 8 6 14t15 6q2 0 4.5 -0.5t4.5 -1.5l4 -2q2 -1 3 -3t2.5 -4t2 -4.5t0.5 -4.5q0 -4 -2 -8t-4.5 -6.5t-6.5 -4t-8 -1.5z" />
    <glyph glyph-name="uniE613" unicode="&#xe613;" 
d="M512 812q-104 0 -199 -40.5t-163.5 -109t-109 -163.5t-40.5 -199q0 -84 26 -162t73.5 -141t110.5 -110.5t141 -73t161 -25.5q104 0 199 40.5t163.5 109t109 163.5t40.5 199t-40.5 199t-109 163.5t-163.5 109t-199 40.5zM512.5 -133q-117.5 0 -217 58t-157.5 157.5
t-58 217.5q0 88 34 168t92 138t138 92t168 34q71 0 137 -21.5t119 -61.5t93 -93.5t62 -119.5t22 -136q0 -118 -58 -217.5t-157.5 -157.5t-217 -58zM540 327v276h-81v-255v-51v-50h314v80h-233z" />
    <glyph glyph-name="uniE614" unicode="&#xe614;" 
d="M238 551q0 -4 -1 -8t-3.5 -7.5t-5.5 -5.5t-7 -3.5t-8 -1.5h-125q-11 0 -18.5 7.5t-7.5 18.5v123q0 10 7.5 17.5t18.5 7.5h125q10 0 17.5 -7.5t7.5 -17.5v-123zM957 569q0 -9 -4 -17.5t-10 -14.5t-14.5 -10t-18.5 -4h-535q-19 0 -32.5 13.5t-13.5 32.5v86q0 13 6 23.5
t16.5 16.5t23.5 6h535q20 0 33.5 -13.5t13.5 -32.5v-86zM238 239q0 -11 -7.5 -18.5t-17.5 -7.5h-125q-7 0 -13 3.5t-9.5 9.5t-3.5 13v122q0 11 7.5 18.5t18.5 7.5h125q10 0 17.5 -7.5t7.5 -18.5v-122zM957 257q0 -19 -13.5 -32.5t-33.5 -13.5h-535q-19 0 -32.5 13.5
t-13.5 32.5v86q0 12 6 23t16.5 17t23.5 6h535q13 0 23.5 -6t17 -17t6.5 -23v-86zM238 -76q0 -10 -7.5 -17.5t-17.5 -7.5h-125q-11 0 -18.5 7.5t-7.5 17.5v123q0 11 7.5 18.5t18.5 7.5h125q10 0 17.5 -7.5t7.5 -18.5v-123zM957 -57q0 -19 -13.5 -32.5t-33.5 -13.5h-535
q-19 0 -32.5 13.5t-13.5 32.5v86q0 9 3.5 17.5t9.5 14.5t14.5 10t18.5 4h535q20 0 33.5 -13.5t13.5 -32.5v-86z" />
    <glyph glyph-name="uniE619" unicode="&#xe619;" 
d="M512 279q97 0 165.5 69t68.5 166q0 63 -31.5 117t-85.5 85.5t-117.5 31.5t-117.5 -31.5t-85.5 -85.5t-31.5 -117q0 -97 69 -166t166 -69zM511.5 198q107.5 0 199.5 -46t147 -125.5t59 -174.5h-811q4 95 59 174.5t147 125.5t199.5 46z" />
    <glyph glyph-name="uniE61A" unicode="&#xe61a;" 
d="M64 31h156v422h-156v-422zM64 -70q0 -22 14.5 -37t36.5 -15h54q22 0 36.5 15t14.5 37v49h-156v-49zM169 614h-54q-7 0 -12.5 -1.5t-10.5 -4t-9.5 -6.5t-8 -8.5t-5.5 -9.5t-3.5 -11t-1.5 -12v-55l156 2v53q0 22 -14.5 37.5t-36.5 15.5zM276 -70q0 -14 6 -26t17 -19t25 -7
h109q14 0 26 7t19.5 19t7.5 26v48h-210v-48zM276 34l210 -1v527h-210v-526zM433 722h-109q-21 0 -34.5 -15.5t-13.5 -37.5v-55l210 -2v57q0 14 -7.5 26.5t-19.5 19.5t-26 7zM749 613h-159q-22 0 -37.5 -15.5t-15.5 -37.5v-631q0 -22 15.5 -37.5t37.5 -15.5h159q11 0 21 4
t17 11t11 17t4 21v631q0 22 -15.5 37.5t-37.5 15.5zM855 86l105 3v153l-105 -1v-155zM855 -73q0 -23 13 -37t35 -14h8q22 0 35.5 15.5t13.5 37.5v104l-105 -2v-104zM911 456h-8q-21 0 -34.5 -16t-13.5 -39v-103h105v106q0 22 -13.5 37t-35.5 15z" />
    <glyph glyph-name="uniE61E" unicode="&#xe61e;" 
d="M867 85q46 -18 71.5 -40t25.5 -46q0 -38 -61 -70t-165 -50.5t-227 -18.5t-227 18.5t-165 50.5t-61 70q0 48 96 86q-22 -15 -22 -32q0 -39 111 -67t268 -28t268 28t111 67q0 17 -23 32zM289 719q34 0 58 -24t24 -58t-24 -58t-58 -24t-58 24t-24 58q0 48 41 71q19 11 41 11
zM732 719q-34 0 -58 -24t-24 -58t24 -58t58 -24q17 0 32 6.5t26 17.5t17.5 26t6.5 32q0 34 -24 58t-58 24zM651 246v-217h58l23 152l23 -152h63v240q13 7 22.5 17.5t14.5 24t5 28.5v123q0 32 -23 55t-55 23h-96q-4 0 -9 -0.5t-9 -1.5q20 -31 20 -69v-133q0 -53 -37 -90z
M512 750q37 0 63.5 -26.5t26.5 -63.5t-26.5 -63t-63.5 -26q-12 0 -23.5 3t-21.5 9t-18 14t-14 18t-9 21.5t-3 23.5q0 50 43 77q22 12 46 13zM601 260q14 7 24 18.5t16 26.5t6 31v133q0 23 -11.5 43t-31 31t-42.5 11h-104q-23 0 -43 -11t-31 -31t-11 -43v-133q0 -25 12.5 -45
t33.5 -31v-261h68l25 165l26 -165h63v261zM370 246q-38 37 -38 90v133q0 38 21 69q-3 0 -5 0.5t-4.5 0.5t-4.5 0.5t-4 0.5h-97q-21 0 -39 -10.5t-28.5 -28.5t-10.5 -39v-123q0 -11 3.5 -21.5t9 -19.5t13 -16.5t17.5 -12.5v-240h63l23 152l23 -152h58v217z" />
    <glyph glyph-name="uniE61F" unicode="&#xe61f;" 
d="M512 268q-6 0 -12 2.5t-10.5 7t-7 10.5t-2.5 12v295q0 5 1.5 10t4.5 9t7 7t9 4.5t10 1.5q13 0 22.5 -9.5t9.5 -22.5v-295q0 -6 -2.5 -12t-7 -10.5t-10.5 -7t-12 -2.5zM807 268h-295q-6 0 -12 2.5t-10.5 7t-7 10.5t-2.5 12q0 9 4.5 16t11.5 11.5t16 4.5h295q7 0 13 -2.5
t10 -7t6.5 -10t2.5 -12.5q0 -13 -9.5 -22.5t-22.5 -9.5zM512 -147q-73 0 -141 22.5t-123 64t-96.5 96.5t-64 123t-22.5 141q0 91 35.5 173.5t95.5 142.5t142.5 95.5t173.5 35.5t173.5 -35.5t142.5 -95.5t95.5 -142.5t35.5 -173.5q0 -73 -22.5 -141t-64 -123t-96.5 -96.5
t-123 -64t-141 -22.5zM512 683q-104 0 -192 -51.5t-139.5 -139.5t-51.5 -192t51.5 -192t139.5 -139.5t192 -51.5t192 51.5t139.5 139.5t51.5 192t-51.5 192t-139.5 139.5t-192 51.5z" />
    <glyph glyph-name="uniE622" unicode="&#xe622;" horiz-adv-x="1027" 
d="M207 748h612q85 0 146 -61t61 -146v-484q0 -85 -61 -146t-146 -61h-612q-85 1 -146 61.5t-61 145.5v486q0 85 61 145t146 60zM397 494l298 -173q9 -5 11.5 -14.5t-2.5 -17.5q-3 -5 -9 -8l-300 -173q-6 -3 -12 -3t-11.5 3t-8.5 9q-5 8 -5 12v346q0 10 7 16.5t17 6.5
q6 0 15 -4zM405 432v-266l233 134zM817 669h-610q-53 0 -90.5 -37.5t-37.5 -90.5v-484q0 -53 37.5 -90.5t90.5 -37.5h612q35 0 64.5 17t46.5 46.5t17 64.5v486q-1 53 -39 89.5t-91 36.5z" />
    <glyph glyph-name="uniE626" unicode="&#xe626;" 
d="M955 300q0 -81 -23.5 -152t-65 -124t-97 -91.5t-122 -58t-136.5 -19.5q-88 0 -169 33.5t-142 91t-97.5 141.5t-36.5 179q0 90 35 172.5t94.5 142t142 95t173 35.5t173 -35.5t142 -95t94.5 -142t35 -172.5zM511 681q-104 0 -192 -51t-139 -139t-51 -191.5t51 -191
t139 -138.5t191.5 -51t191.5 51t139 138.5t51 191.5q0 52 -14 101.5t-38.5 91t-59.5 77t-77 60t-91.5 38t-100.5 13.5zM733 268h-222q-5 0 -9 1t-7.5 3t-6.5 5t-5 6.5t-3 8t-1 8.5v254q0 13 9 22.5t22.5 9.5t22.5 -9.5t9 -22.5v-222h191q5 0 10 -2t9 -4.5t7 -6.5t4.5 -9
t1.5 -10q0 -13 -9.5 -22.5t-22.5 -9.5z" />
    <glyph glyph-name="uniE62F" unicode="&#xe62f;" 
d="M403 375h179v-18h-179v18zM385 285h179v-18h-179v18zM421 465h179v-18h-179v18zM367 196h179v-18h-179v18zM527.5 765q-91.5 0 -174.5 -35.5t-142.5 -95.5t-95 -143t-35.5 -174t35.5 -174t95 -143t142.5 -95.5t174.5 -35.5t174 35.5t142.5 95.5t95.5 143t35.5 174
t-35.5 174t-95.5 143t-142.5 95.5t-174 35.5zM271 106l86 430h340l-86 -430h-340zM629 106l79 394l78 -394h-157z" />
    <glyph glyph-name="uniE634" unicode="&#xe634;" 
d="M512 -212q-52 0 -103 10.5t-96.5 29.5t-87 47.5t-76 62.5t-62.5 75.5t-47 87t-29.5 96.5t-10.5 103q0 104 40.5 199t109 163.5t163.5 109t199 40.5q47 0 92 -8t86.5 -24t80 -38t71.5 -50.5t61.5 -61.5t50.5 -71.5t38 -80t24 -86.5t8 -92q0 -188 -122 -332
q-116 -136 -292 -171q-49 -9 -98 -9zM512 748q-91 0 -174 -35.5t-143 -95.5t-95.5 -143t-35.5 -174t35.5 -174t95.5 -143t143 -95.5t174 -35.5t174 35.5t143 95.5t95.5 143t35.5 174t-35.5 174t-95.5 143t-143 95.5t-174 35.5zM376 436l362 90l-90 -362l-362 -90zM665 453
l-243 -62l-63 -244l244 63zM482 330q12 13 30 13t30.5 -12.5t12.5 -30.5t-13 -30q-8 -8 -19 -11t-22 0t-19 11q-5 5 -8 11t-4 12.5t0 13t4 12.5t8 11z" />
    <glyph glyph-name="uniE635" unicode="&#xe635;" 
d="M94 -20v-100l836 -1v99l-279 182v72q0 1 2.5 0t7.5 0.5t11 3.5t13 8.5t13.5 15t12.5 23t10 32.5v237q0 3 -0.5 8t-5 20t-11.5 29.5t-21 33t-32 33t-47 27t-64 18.5h-55l-39 -10q-107 -35 -137 -135l-5 -24v-237q1 -3 2.5 -9t7 -20t13 -25.5t19.5 -21t26 -10.5l-1 -68z
" />
    <glyph glyph-name="uniE640" unicode="&#xe640;" 
d="M883 674h-748q-19 0 -35.5 -9t-26 -25.5t-9.5 -35.5v-468q0 -29 21 -49.5t50 -20.5h351v-93h-164q-7 0 -12 -3.5t-8.5 -8.5t-3.5 -12q0 -9 7 -16t17 -7h374q10 0 17 7t7 16.5t-7 16.5t-17 7h-164v93h351q29 0 50 20.5t21 49.5v468q0 29 -21 49.5t-50 20.5zM907 136
q0 -9 -7 -16t-17 -7h-748q-7 0 -12 3t-8.5 8.5t-3.5 11.5v468q0 7 3.5 12t8.5 8.5t12 3.5h748q7 0 12 -3.5t8.5 -8.5t3.5 -12v-468zM591 315q2 -2 4.5 -3.5t5.5 -2t6 -0.5q10 0 16.5 6.5t6.5 16.5q0 13 -10 20q-4 3 -9 5.5t-10 4.5q21 17 32.5 41.5t11.5 52.5q0 33 -16.5 61
t-44.5 44t-61 16q-50 0 -85.5 -35.5t-35.5 -85.5q0 -58 43 -95q-28 -14 -49 -34.5t-34 -49t-16 -63.5v0v1q0 -9 7 -15.5t17 -6.5q4 0 8.5 1.5t7.5 4.5t5 7t2 9v-1q5 52 42 85.5t88 33.5q38 0 68 -19v1zM448 456q0 30 22 52t53 22q15 0 29 -6t24 -16t16 -23.5t6 -28.5
q0 -31 -22 -53t-53 -22q-15 0 -29 6t-24 16t-16 23.5t-6 29.5zM654 217q0 10 7 16.5t16.5 6.5t16.5 -6.5t7 -16.5t-7 -16.5t-16.5 -6.5t-16.5 6.5t-7 16.5zM722 347l-6 7q-6 5 -13.5 5t-13.5 -5l-104 -104q-8 -8 -20 -29t-8 -25l7 -7q5 -5 25.5 7.5t29.5 20.5l103 104
q6 5 6 13t-6 13z" />
    <glyph glyph-name="uniE645" unicode="&#xe645;" 
d="M750 168v1v0v-1zM725 181v0v0zM912 656v3v1v1v1h-1v1q0 1 -1 2q0 1 -1 2q0 1 -1 1v1v1q-1 0 -1 1l-2 1q-1 1 -2 1.5t-2 1.5l-1 1q-1 0 -2 1h-2q-1 0 -1.5 0.5t-1.5 0.5h-2h-1v0h-1h-1h-1q-2 0 -3 -1v0l-372 -106l-372 106v0q-1 1 -2 1h-3h-1v0h-1h-2l-3 -1q-1 0 -2 -1h-2
l-1 -1q-1 -1 -1.5 -1t-0.5 -1l-2 -1h-1q0 -1 -1 -1l-1 -2v-1q-1 0 -1 -1l-1 -2q-1 -1 -1 -2v-1l-1 -1v-1v-1v-3v0v-627q1 -15 16 -19l384 -110l384 110q3 0 5 1.5t4 3.5t3.5 4t2.5 4.5t1 5.5v627v0zM489 -47l-332 95v578l332 -95v-578zM867 48l-332 -95v578l332 95v-578z
M230 428l168 -47q9 -3 17 1.5t11 13.5q1 5 0.5 9.5t-2.5 8t-5.5 6.5t-8.5 4l-167 48q-9 2 -17.5 -2.5t-10.5 -13.5q-2 -6 -0.5 -11.5t5.5 -10t10 -6.5zM230 305l168 -48q9 -2 17 2.5t10.5 13.5t-2 17t-13.5 11l-167 47q-9 3 -17.5 -2t-10.5 -14q-2 -4 -1 -8.5t3 -8t5.5 -6.5
t7.5 -4zM230 181l168 -48q9 -2 17 2.5t10.5 13.5t-2 17t-13.5 11l-167 47q-5 2 -9.5 1t-8 -3t-6.5 -5.5t-4 -7.5q-3 -9 1.5 -17.5t13.5 -10.5zM632 381l167 47q9 3 13.5 11t2.5 17q-2 6 -6.5 10.5t-10 5.5t-11.5 0l-168 -48q-9 -2 -13.5 -10.5t-2 -17.5t11 -13.5t17.5 -1.5z
M632 257l167 48q6 1 10.5 5.5t5.5 10t0 11.5q-2 6 -6.5 10.5t-10 6t-11.5 -0.5l-168 -47q-9 -3 -13.5 -11t-2 -17t11 -13.5t17.5 -2.5zM632 133l167 48q6 2 10.5 6t5.5 9.5t0 12.5q-2 6 -6.5 10t-10 5.5t-11.5 -0.5l-168 -47q-4 -2 -7.5 -4.5t-5.5 -6.5t-3 -8.5t1 -8.5
q2 -9 10.5 -13.5t17.5 -2.5z" />
    <glyph glyph-name="uniE646" unicode="&#xe646;" 
d="M514 769q-176 0 -307 -116q-126 -111 -152 -276q-6 -37 -6 -73q0 -94 37 -180t99 -147.5t147.5 -98.5t179.5 -37q95 0 181.5 37t149 98.5t99.5 147.5t37 180.5t-37 180.5t-99 148t-148.5 99t-180.5 37zM512 -95q-65 0 -126 20.5t-110 57.5t-86 86t-57 109.5t-20 125.5
q0 109 53.5 201.5t146 146t201.5 53.5t201.5 -54t146 -146.5t53.5 -200.5q0 -46 -10.5 -91t-30.5 -84t-47.5 -74t-62.5 -62t-75 -47t-85 -30.5t-92 -10.5zM81 306zM774 567q-4 5 -10 7.5t-12.5 2t-13.5 -3.5l-322 -151q-11 -4 -15 -15l-156 -327q-5 -9 -3 -19.5t10 -16.5
q8 -9 23 -9q4 0 13 5l320 153q6 2 15 15l158 325q5 6 3 16t-10 18zM514 240q-27 0 -45.5 18.5t-18.5 45.5t18.5 45.5t45.5 18.5q26 0 45 -18.5t19 -45.5t-19 -45.5t-45 -18.5z" />
    <glyph glyph-name="uniE66B" unicode="&#xe66b;" 
d="M506 -158q-94 0 -179.5 36.5t-147.5 98.5t-99 148t-37 180t37 179.5t99 147.5t147.5 99t179.5 37q47 0 93 -9.5t87 -27t78.5 -43t69 -56.5t56.5 -68.5t42.5 -78.5t27 -87t9.5 -93q0 -94 -36.5 -180t-98.5 -148t-148 -98.5t-180 -36.5zM506 694q-63 0 -122.5 -19.5
t-107.5 -55.5t-84 -84t-55.5 -107.5t-19.5 -122.5q0 -106 52 -196t142 -142t195.5 -52t195.5 52t142 142t52 196q0 79 -31 151t-83 124.5t-124.5 83t-151.5 30.5zM691 229h-263v332q0 15 11 25.5t26 10.5t25.5 -10.5t10.5 -25.5v-259h190q15 0 26 -11t11 -26t-11 -25.5
t-26 -10.5z" />
    <glyph glyph-name="uniE670" unicode="&#xe670;" 
d="M512 812q-139 0 -257 -68.5t-186.5 -186.5t-68.5 -257t68.5 -257t186.5 -186.5t257 -68.5t257 68.5t186.5 186.5t68.5 257t-68.5 257t-186.5 186.5t-257 68.5zM657 300q0 -58 -39.5 -99.5t-96.5 -44.5l-176 -152l-23 13l58 222q-6 14 -9.5 29.5t-3.5 31.5q0 28 10.5 54
t29 45.5t43.5 31.5t53 13l176 152l23 -13l-59 -222q14 -30 14 -61zM512 300zM446 300q0 13 5 25.5t14 21.5t21.5 14t25.5 5q27 0 46.5 -19.5t19.5 -46.5t-19.5 -46.5t-46.5 -19.5q-18 0 -33 9t-24 24t-9 33z" />
    <glyph glyph-name="uniE674" unicode="&#xe674;" 
d="M648 -73q-8 0 -13 5q-9 9 -5 21l23 61q4 10 14 12t17 -5l37 -36q7 -7 5 -17t-11 -14l-59 -25q-4 -2 -8 -2zM707 -48q-7 1 -13 6t-6 13t5 14l140 149q6 5 14 5.5t13.5 -5t6 -13.5t-5.5 -14l-140 -149q-5 -6 -14 -6zM671 -12q-7 0 -13 5q-6 6 -6.5 13.5t5.5 13.5l134 150
q5 6 13 6.5t14 -5.5q4 -3 5.5 -8t0.5 -10t-5 -9l-134 -149q-6 -7 -14 -7zM845 99q-8 0 -13 5l-40 39q-3 3 -4.5 6.5t-1.5 7.5q0 8 5 13l20 20q7 7 19.5 8.5t25.5 -6.5q14 -9 24 -21q2 -3 4 -5q10 -22 -3 -38l-22 -23q-6 -6 -14 -6zM832 157l12 -12l4 4q-3 3 -6.5 5.5
t-6.5 5.5zM748 -161q-37 0 -72 11.5t-63 32.5t-49.5 49.5t-33 63t-11.5 72.5q0 62 31 114.5t83.5 83t114.5 30.5q95 0 162 -67t67 -161q0 -62 -30.5 -115t-83.5 -83.5t-115 -30.5zM748 258q-79 0 -134.5 -56t-55.5 -134q0 -52 25.5 -96t69 -69.5t95.5 -25.5t95.5 25.5
t69 69.5t25.5 96q0 78 -55.5 134t-134.5 56zM437 271q-102 0 -174.5 72t-72.5 174t72.5 174.5t174.5 72.5t174 -72.5t72 -174.5q0 -108 -79 -181q-71 -65 -167 -65zM437 725q-86 0 -147 -61t-61 -147t61 -147t147 -61q56 0 104 28t76 76t28 104q0 86 -61 147t-147 61z
M679 -123zM549 -123h-375q-41 3 -62.5 27.5t-22.5 71.5q0 5 2 14.5t4 17.5t4 12q48 98 139.5 155t200.5 57q41 0 82 -9q11 17 27 33q-27 7 -54 10.5t-55 3.5q-120 0 -220.5 -62.5t-153.5 -170.5q-5 -10 -10 -29.5t-5 -33.5q1 -20 5 -38t11.5 -32.5t18 -26t24 -20t29.5 -13
t35 -5.5h421q-24 16 -45 38z" />
    <glyph glyph-name="uniE67B" unicode="&#xe67b;" 
d="M512 729q87 0 167 -34q38 -16 72.5 -39t64 -52.5t52.5 -64t39 -72.5q34 -80 34 -167t-34 -167q-32 -77 -91.5 -136.5t-136.5 -91.5q-40 -17 -82 -25.5t-85 -8.5q-87 0 -167 34q-77 32 -136.5 91.5t-91.5 136.5q-34 80 -34 167t34 167q32 77 92 136q19 20 41 37t45.5 31
t49.5 24q40 17 82 25.5t85 8.5zM512 750q-73 0 -142 -23t-124 -64.5t-96.5 -97t-64.5 -124t-23 -141.5q0 -46 9.5 -90.5t26.5 -84.5t41.5 -76.5t54.5 -66.5t66.5 -54.5t76.5 -41.5t84.5 -26.5t90.5 -9.5q91 0 174.5 36t143.5 96t96 143.5t36 174.5t-36 174.5t-96 143.5
t-143.5 96t-174.5 36zM517 103q-13 12 -31 12t-31 -12q-4 -4 -7 -8.5t-4.5 -10t-1.5 -11.5q0 -18 13 -30q5 -4 9.5 -7t10 -4t11.5 -1q18 0 31 12t13 30q0 9 -3 16.5t-10 13.5zM616 529q-40 34 -106 34q-68 0 -125 -35v-68q49 48 115 48q41 0 65.5 -21t24.5 -54
q0 -31 -16 -55q-8 -12 -21 -24.5t-31 -26.5q-37 -28 -51 -53q-3 -4 -5 -8.5t-3.5 -9.5t-2.5 -10l-2 -10q-1 -5 -1.5 -11t-0.5 -11v-29h60v26q0 30 12 46.5t47 45.5q44 35 62.5 66.5t18.5 70.5q0 55 -40 89z" />
    <glyph glyph-name="uniE67E" unicode="&#xe67e;" 
d="M729 674q-66 0 -123.5 -35.5t-93.5 -99.5q-11 19 -23 35.5t-26 30.5t-29 25.5t-31.5 20t-34 15t-35.5 9.5t-37 3q-35 0 -68 -11t-62.5 -34t-52 -54.5t-36 -76.5t-13.5 -97q0 -30 7 -58t17.5 -49t29.5 -42.5t34 -35.5t41 -32t40.5 -27t42.5 -25q33 -19 48 -28
q67 -43 116 -95.5t57 -78.5q4 -12 15 -12h1q12 1 15 12q6 24 57 78t115 98q4 3 9 6l10 6q5 3 9 5.5t10.5 6.5t9.5 6l11 6q21 13 32 20t31 20t31.5 22t28.5 24t26.5 27.5t20.5 30t17 34.5t10 38.5t4 44.5q0 44 -9.5 83t-26.5 68t-39 51.5t-47.5 36.5t-53 21t-55.5 7z" />
    <glyph glyph-name="uniE687" unicode="&#xe687;" 
d="M512 780q-199 0 -339.5 -140.5t-140.5 -339.5t140.5 -339.5t339.5 -140.5t339.5 140.5t140.5 339.5t-140.5 339.5t-339.5 140.5zM512 -148q-121 0 -224.5 60t-163.5 163.5t-60 224.5t60 224.5t163.5 163.5t224.5 60t224.5 -60t163.5 -163.5t60 -224.5t-60 -224.5
t-163.5 -163.5t-224.5 -60zM336 178l-122 -176l352 244l244 352l-352 -244zM659 447l-121 -173l-173 -121l3 3l118 170zM659 447l-173 -121l55 -55z" />
    <glyph glyph-name="uniE68E" unicode="&#xe68e;" 
d="M959 300q0 -73 -22.5 -141t-64 -123t-96.5 -96.5t-123 -64t-141 -22.5q-91 0 -174 35t-143 95t-95.5 143t-35.5 174t35.5 174t95.5 143t143 95.5t174 35.5t174 -35.5t143 -95.5t95 -143t35 -174zM511.5 684q-104.5 0 -192.5 -51.5t-139.5 -139.5t-51.5 -192.5t51.5 -193
t139.5 -140t192.5 -51.5t193 51.5t139.5 140t51 193t-51 192.5t-139.5 139.5t-193 51.5zM801 239q0 -12 -8.5 -20.5t-20.5 -8.5h-261q-8 0 -15 4t-10.5 10.5t-3.5 14.5v6q0 8 3.5 14.5t10.5 10.5t15 4h261q8 0 15 -4t10.5 -10.5t3.5 -14.5v-6zM545 239q0 -12 -8.5 -20.5
t-20.5 -8.5h-7q-12 0 -20.5 8.5t-8.5 20.5v289q0 5 1.5 9.5t4.5 8t6.5 6t8 4t8.5 1.5h7q12 0 20.5 -8.5t8.5 -20.5v-289z" />
    <glyph glyph-name="uniE6AE" unicode="&#xe6ae;" 
d="M596 537h-388q-4 0 -7.5 1t-7 2.5t-6.5 3.5t-5.5 4.5t-4.5 5.5t-3 6l-2 8q-1 3 -1 7q0 15 11 26t26 11h388q7 0 14 -3t12 -8t8 -12t3 -14q0 -16 -11 -27t-26 -11zM596 241h-388q-7 0 -14 3t-12 8t-8 12t-3 14.5t3 14.5t8 12t12 8t14 3h388q15 0 26 -11t11 -26.5
t-11 -26.5t-26 -11zM420 82h-212q-15 0 -26 11t-11 26.5t11 26t26 10.5h212q10 0 18.5 -5t13.5 -13.5t5 -18.5t-5 -18.5t-13.5 -13.5t-18.5 -5zM546 378h-338q-15 0 -26 11t-11 26.5t11 26.5t26 11h338q7 0 14 -3t12 -8t8 -12t3 -15q0 -15 -11 -26t-26 -11zM738 88v-188
h-611v777h611v-345l65 56v349h-741v-897h741v298zM868 416l-41 -37l88 -80l42 37zM617 188l88 -80l201 182l-89 80zM690 94l-89 80l-9 -8l-25 -103l113 23z" />
    <glyph glyph-name="uniE6B3" unicode="&#xe6b3;" 
d="M692 231q42 0 79.5 -15t65 -41.5t43.5 -62t16 -75.5v-71q0 -1 -0.5 -1.5t-0.5 -1.5v-79q0 -14 -11 -25t-26 -11h-693q-15 0 -26 11t-11 25v153q0 40 16 75.5t43.5 62t64.5 41.5t79 15h361zM511 300q-53 0 -99.5 20t-81.5 55t-55 81.5t-20 99.5t20 99.5t55 81.5t81.5 55
t99.5 20t99.5 -20t81.5 -55t55 -81.5t20 -99.5t-20 -99.5t-55 -81.5t-81.5 -55t-99.5 -20z" />
    <glyph glyph-name="uniE714" unicode="&#xe714;" 
d="M1015 316l-48 28q-5 51 -21 100t-44 95t-67 85q-116 116 -280 131l-27 48q-3 4 -7 6.5t-9 2.5t-9 -2.5t-7 -6.5l-27 -48q-80 -7 -151.5 -41t-128.5 -90q-116 -117 -132 -280l-48 -28q-9 -5 -9 -15.5t9 -16.5l48 -27q16 -164 132 -280t280 -132l27 -48q5 -9 16 -9t16 9
l27 48q164 16 280 132q58 58 91 130t41 150l48 27q9 6 9 16.5t-9 15.5zM784 29q-55 -55 -125 -84t-147 -29t-147 29t-125 84q-73 73 -99 172t0 198t99 173q37 36 80.5 61t92 38t99.5 13q77 0 147 -29t125 -83q73 -74 99.5 -173t0 -198t-99.5 -172zM768 566q-1 0 -1.5 -0.5
t-1.5 -0.5l-323 -194l-195 -325q-1 -5 2 -8t6 -3q2 0 3 1l325 195l194 322q2 6 -2 10zM469 345l87 -88l-218 -131z" />
    <glyph glyph-name="uniE751" unicode="&#xe751;" horiz-adv-x="1025" 
d="M512 768q-126 0 -236 -62q-73 -41 -128 -104t-85.5 -144t-30.5 -170q0 -97 38 -186t102.5 -153t153 -102t186.5 -38t187 38t153 102t102 153t38 186.5t-38 186.5t-102 153t-153 102t-187 38zM512 -131q-114 0 -211 56t-153 152.5t-56 210.5t56 211t153 153t211 56
t211 -56t153 -153t56 -211t-56 -210.5t-153 -152.5t-211 -56zM726 546h-137q-23 0 -43.5 -10t-34.5 -29q-14 19 -34.5 29t-43.5 10h-137q-16 0 -27.5 -11t-11.5 -28v-361q0 -11 5 -20t14 -14t20 -5h144q9 -10 20.5 -16.5t24.5 -9.5t26 -3q41 0 71 29h144q11 0 20 5t14 14
t5 20v361q0 17 -11.5 28t-27.5 11zM726 146h-152q-2 0 -4 -0.5t-4 -1.5l-4 -2q-2 -1 -3 -3q-5 -5 -10.5 -9.5t-11.5 -7t-12.5 -4t-13.5 -1.5q-29 0 -48 22q-6 7 -15 7h-152v361h137q12 0 22.5 -4.5t18.5 -12.5t12.5 -18.5t4.5 -22.5v-166q0 -6 3 -10.5t7.5 -7t9.5 -2.5
q8 0 14 6t6 14v166q0 24 17 41t41 17h137v-361z" />
    <glyph glyph-name="uF00CF" unicode="&#xf00cf;" 
d="M683 723q-14 0 -23.5 -9t-9.5 -22v-777q0 -13 9.5 -22.5t23 -9.5t23 9.5t9.5 22.5v777q0 8 -4.5 15.5t-11.5 11.5t-16 4zM770.5 705q-2.5 0 -5.5 -1t-4.5 -2.5t-3 -4.5t-1.5 -5v-777q0 -5 4.5 -9.5t10 -4.5t10 4.5t4.5 9.5v777q0 2 -1.5 5t-3 4.5t-4.5 2.5t-5.5 1z
M846 705q-4 0 -7 -1.5t-5 -5t-2 -6.5v-777q0 -2 1 -5t3 -4.5t4.5 -3t5.5 -1.5q6 0 10 4.5t4 9.5v777q-2 12 -14 13zM932 723q-9 0 -16.5 -4t-12 -11.5t-4.5 -15.5v-777q0 -13 9.5 -22.5t23.5 -9.5q6 0 12 2.5t10.5 7t7 10.5t2.5 12v777q0 13 -9.5 22t-22.5 9zM533 723h-121
q-15 0 -28.5 -7.5t-21 -20.5t-7.5 -29l-1 -724q0 -23 17 -39.5t41 -16.5h120q24 0 41 16.5t17 39.5v724q0 23 -16.5 40t-40.5 17zM521 452h-98q-2 0 -5 0.5t-5 2t-4 3.5t-3 4t-2 4.5t-1 5.5q0 8 6 13.5t14 5.5h98q9 0 14.5 -5.5t5.5 -13.5q0 -6 -2.5 -10.5t-7 -7t-10.5 -2.5
zM521 536h-97q-9 0 -15 6t-6 14q0 5 3 9.5t7.5 7.5t10.5 3h97q6 0 10.5 -3t7 -7.5t2.5 -9.5q0 -8 -5.5 -14t-14.5 -6zM240 723h-120q-16 0 -29 -7.5t-21 -20.5t-8 -29v-724q0 -23 17 -39.5t40 -16.5h121q15 0 28.5 7.5t21.5 20.5t8 28v724q0 15 -7.5 28t-21 21t-29.5 8z
M229 452h-98q-5 0 -10 2.5t-7.5 7t-2.5 10.5q0 8 6 13.5t14 5.5h98q8 0 14 -5.5t6 -13.5q0 -6 -2.5 -10.5t-7.5 -7t-10 -2.5zM229 536h-98q-4 0 -7.5 1.5t-6.5 4t-4.5 6.5t-1.5 8q0 8 6 14t14 6h98q4 0 7.5 -2t6.5 -4.5t4.5 -6t1.5 -7.5q0 -8 -6 -14t-14 -6z" />
  </font>
</defs>
</svg>
